<?xml version="1.0" encoding="iso-8859-1"?>
<!-- Generator: Adobe Illustrator 19.0.0, SVG Export Plug-In . SVG Version: 6.00 Build 0)  -->
<svg version="1.1" id="Capa_1" xmlns="http://www.w3.org/2000/svg" xmlns:xlink="http://www.w3.org/1999/xlink" x="0px" y="0px"
	 viewBox="0 0 419.2 419.2" style="enable-background:new 0 0 419.2 419.2;" xml:space="preserve">
<g>
	<g>
		<path d="M353.2,37.6H310V8c0-4.8-3.2-8-8-8s-8,3.2-8,8v29.6h-45.6V8c0-4.8-3.2-8-8-8s-8,3.2-8,8v29.6h-45.6V8c0-4.8-3.2-8-8-8
			s-8,3.2-8,8v29.6h-45.6V8c0-4.8-3.2-8-8-8c-4.8,0-8,3.2-8,8v29.6H66c-9.6,0-17.6,8-17.6,17.6v346.4c0.8,9.6,8.8,17.6,18.4,17.6
			h286.4c9.6,0,17.6-8,17.6-17.6V55.2C370.8,45.6,362.8,37.6,353.2,37.6z M355.6,401.6c0,0.8-0.8,1.6-1.6,1.6H66.8
			c-0.8,0-1.6-0.8-1.6-1.6V55.2c0-0.8,0.8-1.6,1.6-1.6H110v29.6c0,4.8,3.2,8,8,8s8-3.2,8-8V53.6h45.6v29.6c0,4.8,3.2,8,8,8
			c4.8,0,8-3.2,8-8V53.6h45.6v29.6c0,4.8,3.2,8,8,8s8-3.2,8-8V53.6h45.6v29.6c0,4.8,3.2,8,8,8s8-3.2,8-8V53.6H354
			c0.8,0,1.6,0.8,1.6,1.6V401.6z"/>
	</g>
</g>
<g>
	<g>
		<path d="M302,148H117.2c-4.8,0-8,3.2-8,8c0,4.8,4,8,8,8H302c4.8,0,8-3.2,8-8C310,151.2,306.8,148,302,148z"/>
	</g>
</g>
<g>
	<g>
		<path d="M302,203.2H117.2c-4.8,0-8,3.2-8,8c0,4.8,4,8,8,8H302c4.8,0,8-3.2,8-8S306.8,203.2,302,203.2z"/>
	</g>
</g>
<g>
	<g>
		<path d="M302,258.4H117.2c-4.8,0-8,3.2-8,8s4,8,8,8H302c4.8,0,8-3.2,8-8S306.8,258.4,302,258.4z"/>
	</g>
</g>
<g>
	<g>
		<path d="M302,312.8H117.2c-4.8,0-8,3.2-8,8s4,8,8,8H302c4.8,0,8-3.2,8-8S306.8,312.8,302,312.8z"/>
	</g>
</g>
<g>
</g>
<g>
</g>
<g>
</g>
<g>
</g>
<g>
</g>
<g>
</g>
<g>
</g>
<g>
</g>
<g>
</g>
<g>
</g>
<g>
</g>
<g>
</g>
<g>
</g>
<g>
</g>
<g>
</g>
</svg>
