<?xml version="1.0" encoding="iso-8859-1"?>
<!-- Generator: Adobe Illustrator 19.0.0, SVG Export Plug-In . SVG Version: 6.00 Build 0)  -->
<svg version="1.1" id="Layer_1" xmlns="http://www.w3.org/2000/svg" xmlns:xlink="http://www.w3.org/1999/xlink" x="0px" y="0px"
	 viewBox="0 0 512 512" style="enable-background:new 0 0 512 512;" xml:space="preserve">
<g>
	<g>
		<path d="M390.437,32.819V0h-33.391v32.819h-45.103V0h-33.391v32.819H233.45V0h-33.391v32.819h-45.103V0h-33.391v32.819H64.544V512
			h382.913V32.819H390.437z M97.935,478.609V66.21h23.629v32.82h33.391V66.21h45.103v32.82h33.391V66.21h45.102v32.82h33.391V66.21
			h45.103v32.82h33.391V66.21h23.629v412.398H97.935z"/>
	</g>
</g>
<g>
	<g>
		<rect x="138.263" y="155.526" width="235.487" height="33.391"/>
	</g>
</g>
<g>
	<g>
		<rect x="138.263" y="238.826" width="235.487" height="33.391"/>
	</g>
</g>
<g>
	<g>
		<rect x="138.263" y="322.115" width="235.487" height="33.391"/>
	</g>
</g>
<g>
	<g>
		<rect x="138.263" y="405.415" width="235.487" height="33.391"/>
	</g>
</g>
<g>
</g>
<g>
</g>
<g>
</g>
<g>
</g>
<g>
</g>
<g>
</g>
<g>
</g>
<g>
</g>
<g>
</g>
<g>
</g>
<g>
</g>
<g>
</g>
<g>
</g>
<g>
</g>
<g>
</g>
</svg>
